<?xml version="1.0" standalone="yes"?>
<!-- SVG graphic -->
<svg xmlns='http://www.w3.org/2000/svg' xmlns:xlink='http://www.w3.org/1999/xlink'
 version="1.1">
<rect x="0" y="76.7123" width="6" height="123.288" stroke="black" stroke-width="1" fill="blue" tooltip="enable"><title>(0,45)</title></rect><rect x="6" y="65.7534" width="6" height="134.247" stroke="black" stroke-width="1" fill="blue" tooltip="enable"><title>(0.0298402,49)</title></rect><rect x="12" y="0" width="6" height="200" stroke="black" stroke-width="1" fill="blue" tooltip="enable"><title>(0.0596803,73)</title></rect><rect x="18" y="32.8767" width="6" height="167.123" stroke="black" stroke-width="1" fill="blue" tooltip="enable"><title>(0.0895205,61)</title></rect><rect x="24" y="49.3151" width="6" height="150.685" stroke="black" stroke-width="1" fill="blue" tooltip="enable"><title>(0.119361,55)</title></rect><rect x="30" y="27.3973" width="6" height="172.603" stroke="black" stroke-width="1" fill="blue" tooltip="enable"><title>(0.149201,63)</title></rect><rect x="36" y="38.3562" width="6" height="161.644" stroke="black" stroke-width="1" fill="blue" tooltip="enable"><title>(0.179041,59)</title></rect><rect x="42" y="8.21918" width="6" height="191.781" stroke="black" stroke-width="1" fill="blue" tooltip="enable"><title>(0.208881,70)</title></rect><rect x="48" y="71.2329" width="6" height="128.767" stroke="black" stroke-width="1" fill="blue" tooltip="enable"><title>(0.238721,47)</title></rect><rect x="54" y="87.6712" width="6" height="112.329" stroke="black" stroke-width="1" fill="blue" tooltip="enable"><title>(0.268561,41)</title></rect><rect x="60" y="90.411" width="6" height="109.589" stroke="black" stroke-width="1" fill="blue" tooltip="enable"><title>(0.298402,40)</title></rect><rect x="66" y="104.11" width="6" height="95.8904" stroke="black" stroke-width="1" fill="blue" tooltip="enable"><title>(0.328242,35)</title></rect><rect x="72" y="63.0137" width="6" height="136.986" stroke="black" stroke-width="1" fill="blue" tooltip="enable"><title>(0.358082,50)</title></rect><rect x="78" y="93.1507" width="6" height="106.849" stroke="black" stroke-width="1" fill="blue" tooltip="enable"><title>(0.387922,39)</title></rect><rect x="84" y="109.589" width="6" height="90.411" stroke="black" stroke-width="1" fill="blue" tooltip="enable"><title>(0.417762,33)</title></rect><rect x="90" y="104.11" width="6" height="95.8904" stroke="black" stroke-width="1" fill="blue" tooltip="enable"><title>(0.447602,35)</title></rect><rect x="96" y="139.726" width="6" height="60.274" stroke="black" stroke-width="1" fill="blue" tooltip="enable"><title>(0.477442,22)</title></rect><rect x="102" y="106.849" width="6" height="93.1507" stroke="black" stroke-width="1" fill="blue" tooltip="enable"><title>(0.507283,34)</title></rect><rect x="108" y="136.986" width="6" height="63.0137" stroke="black" stroke-width="1" fill="blue" tooltip="enable"><title>(0.537123,23)</title></rect><rect x="114" y="123.288" width="6" height="76.7123" stroke="black" stroke-width="1" fill="blue" tooltip="enable"><title>(0.566963,28)</title></rect><rect x="120" y="120.548" width="6" height="79.4521" stroke="black" stroke-width="1" fill="blue" tooltip="enable"><title>(0.596803,29)</title></rect><rect x="126" y="120.548" width="6" height="79.4521" stroke="black" stroke-width="1" fill="blue" tooltip="enable"><title>(0.626643,29)</title></rect><rect x="132" y="120.548" width="6" height="79.4521" stroke="black" stroke-width="1" fill="blue" tooltip="enable"><title>(0.656483,29)</title></rect><rect x="138" y="161.644" width="6" height="38.3562" stroke="black" stroke-width="1" fill="blue" tooltip="enable"><title>(0.686324,14)</title></rect><rect x="144" y="153.425" width="6" height="46.5753" stroke="black" stroke-width="1" fill="blue" tooltip="enable"><title>(0.716164,17)</title></rect><rect x="150" y="172.603" width="6" height="27.3973" stroke="black" stroke-width="1" fill="blue" tooltip="enable"><title>(0.746004,10)</title></rect><rect x="156" y="167.123" width="6" height="32.8767" stroke="black" stroke-width="1" fill="blue" tooltip="enable"><title>(0.775844,12)</title></rect><rect x="162" y="164.384" width="6" height="35.6164" stroke="black" stroke-width="1" fill="blue" tooltip="enable"><title>(0.805684,13)</title></rect><rect x="168" y="175.342" width="6" height="24.6575" stroke="black" stroke-width="1" fill="blue" tooltip="enable"><title>(0.835524,9)</title></rect><rect x="174" y="169.863" width="6" height="30.137" stroke="black" stroke-width="1" fill="blue" tooltip="enable"><title>(0.865364,11)</title></rect><rect x="180" y="183.562" width="6" height="16.4384" stroke="black" stroke-width="1" fill="blue" tooltip="enable"><title>(0.895205,6)</title></rect><rect x="186" y="175.342" width="6" height="24.6575" stroke="black" stroke-width="1" fill="blue" tooltip="enable"><title>(0.925045,9)</title></rect><rect x="192" y="178.082" width="6" height="21.9178" stroke="black" stroke-width="1" fill="blue" tooltip="enable"><title>(0.954885,8)</title></rect><rect x="198" y="161.644" width="6" height="38.3562" stroke="black" stroke-width="1" fill="blue" tooltip="enable"><title>(0.984725,14)</title></rect><rect x="204" y="175.342" width="6" height="24.6575" stroke="black" stroke-width="1" fill="blue" tooltip="enable"><title>(1.01457,9)</title></rect><rect x="210" y="164.384" width="6" height="35.6164" stroke="black" stroke-width="1" fill="blue" tooltip="enable"><title>(1.04441,13)</title></rect><rect x="216" y="186.301" width="6" height="13.6986" stroke="black" stroke-width="1" fill="blue" tooltip="enable"><title>(1.07425,5)</title></rect><rect x="222" y="161.644" width="6" height="38.3562" stroke="black" stroke-width="1" fill="blue" tooltip="enable"><title>(1.10409,14)</title></rect><rect x="228" y="175.342" width="6" height="24.6575" stroke="black" stroke-width="1" fill="blue" tooltip="enable"><title>(1.13393,9)</title></rect><rect x="234" y="175.342" width="6" height="24.6575" stroke="black" stroke-width="1" fill="blue" tooltip="enable"><title>(1.16377,9)</title></rect><rect x="240" y="183.562" width="6" height="16.4384" stroke="black" stroke-width="1" fill="blue" tooltip="enable"><title>(1.19361,6)</title></rect><rect x="246" y="183.562" width="6" height="16.4384" stroke="black" stroke-width="1" fill="blue" tooltip="enable"><title>(1.22345,6)</title></rect><rect x="252" y="189.041" width="6" height="10.9589" stroke="black" stroke-width="1" fill="blue" tooltip="enable"><title>(1.25329,4)</title></rect><rect x="258" y="183.562" width="6" height="16.4384" stroke="black" stroke-width="1" fill="blue" tooltip="enable"><title>(1.28313,6)</title></rect><rect x="264" y="189.041" width="6" height="10.9589" stroke="black" stroke-width="1" fill="blue" tooltip="enable"><title>(1.31297,4)</title></rect><rect x="270" y="183.562" width="6" height="16.4384" stroke="black" stroke-width="1" fill="blue" tooltip="enable"><title>(1.34281,6)</title></rect><rect x="276" y="189.041" width="6" height="10.9589" stroke="black" stroke-width="1" fill="blue" tooltip="enable"><title>(1.37265,4)</title></rect><rect x="282" y="186.301" width="6" height="13.6986" stroke="black" stroke-width="1" fill="blue" tooltip="enable"><title>(1.40249,5)</title></rect><rect x="288" y="189.041" width="6" height="10.9589" stroke="black" stroke-width="1" fill="blue" tooltip="enable"><title>(1.43233,4)</title></rect><rect x="294" y="191.781" width="6" height="8.21918" stroke="black" stroke-width="1" fill="blue" tooltip="enable"><title>(1.46217,3)</title></rect><rect x="300" y="194.521" width="6" height="5.47945" stroke="black" stroke-width="1" fill="blue" tooltip="enable"><title>(1.49201,2)</title></rect><rect x="306" y="183.562" width="6" height="16.4384" stroke="black" stroke-width="1" fill="blue" tooltip="enable"><title>(1.52185,6)</title></rect><rect x="312" y="191.781" width="6" height="8.21918" stroke="black" stroke-width="1" fill="blue" tooltip="enable"><title>(1.55169,3)</title></rect><rect x="318" y="191.781" width="6" height="8.21918" stroke="black" stroke-width="1" fill="blue" tooltip="enable"><title>(1.58153,3)</title></rect><rect x="324" y="189.041" width="6" height="10.9589" stroke="black" stroke-width="1" fill="blue" tooltip="enable"><title>(1.61137,4)</title></rect><rect x="330" y="191.781" width="6" height="8.21918" stroke="black" stroke-width="1" fill="blue" tooltip="enable"><title>(1.64121,3)</title></rect><rect x="336" y="194.521" width="6" height="5.47945" stroke="black" stroke-width="1" fill="blue" tooltip="enable"><title>(1.67105,2)</title></rect><rect x="342" y="194.521" width="6" height="5.47945" stroke="black" stroke-width="1" fill="blue" tooltip="enable"><title>(1.70089,2)</title></rect><rect x="348" y="197.26" width="6" height="2.73973" stroke="black" stroke-width="1" fill="blue" tooltip="enable"><title>(1.73073,1)</title></rect><rect x="354" y="191.781" width="6" height="8.21918" stroke="black" stroke-width="1" fill="blue" tooltip="enable"><title>(1.76057,3)</title></rect><rect x="360" y="180.822" width="6" height="19.1781" stroke="black" stroke-width="1" fill="blue" tooltip="enable"><title>(1.79041,7)</title></rect><rect x="366" y="194.521" width="6" height="5.47945" stroke="black" stroke-width="1" fill="blue" tooltip="enable"><title>(1.82025,2)</title></rect><rect x="372" y="189.041" width="6" height="10.9589" stroke="black" stroke-width="1" fill="blue" tooltip="enable"><title>(1.85009,4)</title></rect><rect x="378" y="189.041" width="6" height="10.9589" stroke="black" stroke-width="1" fill="blue" tooltip="enable"><title>(1.87993,4)</title></rect><rect x="384" y="197.26" width="6" height="2.73973" stroke="black" stroke-width="1" fill="blue" tooltip="enable"><title>(1.90977,1)</title></rect><rect x="390" y="189.041" width="6" height="10.9589" stroke="black" stroke-width="1" fill="blue" tooltip="enable"><title>(1.93961,4)</title></rect><rect x="396" y="191.781" width="6" height="8.21918" stroke="black" stroke-width="1" fill="blue" tooltip="enable"><title>(1.96945,3)</title></rect><rect x="402" y="189.041" width="6" height="10.9589" stroke="black" stroke-width="1" fill="blue" tooltip="enable"><title>(1.99929,4)</title></rect><rect x="408" y="191.781" width="6" height="8.21918" stroke="black" stroke-width="1" fill="blue" tooltip="enable"><title>(2.02913,3)</title></rect><rect x="414" y="200" width="6" height="0" stroke="black" stroke-width="1" fill="blue" tooltip="enable"><title>(2.05897,0)</title></rect><rect x="420" y="191.781" width="6" height="8.21918" stroke="black" stroke-width="1" fill="blue" tooltip="enable"><title>(2.08881,3)</title></rect><rect x="426" y="191.781" width="6" height="8.21918" stroke="black" stroke-width="1" fill="blue" tooltip="enable"><title>(2.11865,3)</title></rect><rect x="432" y="194.521" width="6" height="5.47945" stroke="black" stroke-width="1" fill="blue" tooltip="enable"><title>(2.14849,2)</title></rect><rect x="438" y="197.26" width="6" height="2.73973" stroke="black" stroke-width="1" fill="blue" tooltip="enable"><title>(2.17833,1)</title></rect><rect x="444" y="200" width="6" height="0" stroke="black" stroke-width="1" fill="blue" tooltip="enable"><title>(2.20817,0)</title></rect><rect x="450" y="200" width="6" height="0" stroke="black" stroke-width="1" fill="blue" tooltip="enable"><title>(2.23801,0)</title></rect><rect x="456" y="197.26" width="6" height="2.73973" stroke="black" stroke-width="1" fill="blue" tooltip="enable"><title>(2.26785,1)</title></rect><rect x="462" y="197.26" width="6" height="2.73973" stroke="black" stroke-width="1" fill="blue" tooltip="enable"><title>(2.29769,1)</title></rect><rect x="468" y="194.521" width="6" height="5.47945" stroke="black" stroke-width="1" fill="blue" tooltip="enable"><title>(2.32753,2)</title></rect><rect x="474" y="194.521" width="6" height="5.47945" stroke="black" stroke-width="1" fill="blue" tooltip="enable"><title>(2.35737,2)</title></rect><rect x="480" y="197.26" width="6" height="2.73973" stroke="black" stroke-width="1" fill="blue" tooltip="enable"><title>(2.38721,1)</title></rect><rect x="486" y="194.521" width="6" height="5.47945" stroke="black" stroke-width="1" fill="blue" tooltip="enable"><title>(2.41705,2)</title></rect><rect x="492" y="200" width="6" height="0" stroke="black" stroke-width="1" fill="blue" tooltip="enable"><title>(2.44689,0)</title></rect><rect x="498" y="194.521" width="6" height="5.47945" stroke="black" stroke-width="1" fill="blue" tooltip="enable"><title>(2.47673,2)</title></rect><rect x="504" y="197.26" width="6" height="2.73973" stroke="black" stroke-width="1" fill="blue" tooltip="enable"><title>(2.50657,1)</title></rect><rect x="510" y="194.521" width="6" height="5.47945" stroke="black" stroke-width="1" fill="blue" tooltip="enable"><title>(2.53641,2)</title></rect><rect x="516" y="200" width="6" height="0" stroke="black" stroke-width="1" fill="blue" tooltip="enable"><title>(2.56625,0)</title></rect><rect x="522" y="197.26" width="6" height="2.73973" stroke="black" stroke-width="1" fill="blue" tooltip="enable"><title>(2.59609,1)</title></rect><rect x="528" y="191.781" width="6" height="8.21918" stroke="black" stroke-width="1" fill="blue" tooltip="enable"><title>(2.62593,3)</title></rect><rect x="534" y="200" width="6" height="0" stroke="black" stroke-width="1" fill="blue" tooltip="enable"><title>(2.65577,0)</title></rect><rect x="540" y="197.26" width="6" height="2.73973" stroke="black" stroke-width="1" fill="blue" tooltip="enable"><title>(2.68561,1)</title></rect><rect x="546" y="200" width="6" height="0" stroke="black" stroke-width="1" fill="blue" tooltip="enable"><title>(2.71545,0)</title></rect><rect x="552" y="197.26" width="6" height="2.73973" stroke="black" stroke-width="1" fill="blue" tooltip="enable"><title>(2.74529,1)</title></rect><rect x="558" y="194.521" width="6" height="5.47945" stroke="black" stroke-width="1" fill="blue" tooltip="enable"><title>(2.77513,2)</title></rect><rect x="564" y="194.521" width="6" height="5.47945" stroke="black" stroke-width="1" fill="blue" tooltip="enable"><title>(2.80497,2)</title></rect><rect x="570" y="200" width="6" height="0" stroke="black" stroke-width="1" fill="blue" tooltip="enable"><title>(2.83481,0)</title></rect><rect x="576" y="197.26" width="6" height="2.73973" stroke="black" stroke-width="1" fill="blue" tooltip="enable"><title>(2.86465,1)</title></rect><rect x="582" y="197.26" width="6" height="2.73973" stroke="black" stroke-width="1" fill="blue" tooltip="enable"><title>(2.8945,1)</title></rect><rect x="588" y="200" width="6" height="0" stroke="black" stroke-width="1" fill="blue" tooltip="enable"><title>(2.92434,0)</title></rect><rect x="594" y="197.26" width="6" height="2.73973" stroke="black" stroke-width="1" fill="blue" tooltip="enable"><title>(2.95418,1)</title></rect><text x="30" y="240" font-size="20" fill="black">0</text>
<text x="600" y="240" font-size="20" fill="black">2.98402</text>
<polyline points="0,220,600,220" stroke="black" stroke-width="1" fill="none"/>
<text x="720" y="20" font-size="20" fill="black">73</text>
<text x="720" y="200" font-size="20" fill="black">0</text>
<polyline points="660,0,660,200" stroke="black" stroke-width="1" fill="none"/>
</svg>